<svg width="186" height="83" viewBox="0 0 186 83" fill="none" xmlns="http://www.w3.org/2000/svg">
<path fill-rule="evenodd" clip-rule="evenodd" d="M1.2832 24.597C11.9309 17.8972 22.5014 11.1974 33.1555 4.50406C40.1768 -0.832638 46.6065 -1.90641 51.7182 6.40727C54.8495 11.011 57.9872 15.6083 61.1185 20.212C62.7067 22.5138 65.0857 22.7517 68.2555 20.9257C72.1455 18.5274 76.0291 16.1355 79.9191 13.7372V16.5984C74.5631 19.9869 69.2071 23.369 63.8512 26.7574C58.0194 29.7344 53.9365 28.3456 50.6444 24.97C49.5321 23.3047 48.4262 21.6394 47.3138 19.9741C40.0546 13.7436 34.1071 12.3162 28.7511 13.0749C30.7508 11.5704 32.3261 9.87934 41.1284 11.2875C40.4147 10.3358 39.701 9.38424 38.9873 8.43264C36.9619 6.43942 34.943 7.23671 32.9176 8.43264C22.3728 14.8624 11.828 21.2922 1.2832 27.7219V24.597Z" fill="white"/>
<path fill-rule="evenodd" clip-rule="evenodd" d="M1.2832 30.4605C8.26592 26.0497 15.2486 21.6389 22.2571 17.2345C29.2784 11.8978 35.7017 10.8241 40.8198 19.1377C43.9511 23.7414 47.0888 28.3387 50.2201 32.9424C51.8082 35.2443 54.1872 35.4822 57.3571 33.6561C61.2471 31.2578 75.8234 21.7675 79.9191 19.2342V22.0954C74.4088 25.5803 58.3087 36.0994 52.9527 39.4879C47.0438 42.3106 42.8194 41.314 39.746 37.7004L28.0889 21.1567C26.0635 19.1635 24.0445 19.9607 22.0192 21.1567C15.1072 25.3746 8.19519 29.5861 1.2832 33.804V30.4605Z" fill="white"/>
<path fill-rule="evenodd" clip-rule="evenodd" d="M1.2832 36.4088C11.2365 30.1397 2.7942 35.0907 13.4033 28.423C20.4246 23.0863 26.8543 22.0125 31.966 30.3262C35.0973 34.9299 38.235 39.5272 41.3663 44.1309C42.9544 46.4328 45.3335 46.6707 48.5098 44.8446C52.4383 42.427 76.0034 27.3878 79.9256 24.9702C79.9256 25.9218 79.9256 26.8734 79.9256 27.8315C74.531 31.2392 49.4999 47.2686 44.1054 50.6764C38.2736 53.6534 34.1907 52.2645 30.8987 48.8889C29.7863 47.2236 28.6804 45.5583 27.568 43.893C20.3024 37.6626 14.3549 36.2352 8.99891 36.9939C10.9986 35.4893 12.5739 33.7983 21.3762 35.2064C20.6625 34.2548 19.9488 33.3032 19.2351 32.3516C17.2097 30.3584 15.1908 31.1557 13.1654 32.3516C2.6656 38.7492 11.1657 33.554 1.2832 39.5786V36.4088Z" fill="white"/>
<path fill-rule="evenodd" clip-rule="evenodd" d="M102.873 6.77381L95.8971 24.2499H109.605L102.873 6.77381ZM101.157 4.18262H104.712L117.057 35.3412H113.92L110.634 26.8604H94.7334L91.4606 35.3412H88.5029L101.157 4.18262ZM125.018 4.18262H128.702L143.947 30.3196C144.05 30.4867 144.178 30.7439 144.345 31.1104C144.5 31.4705 144.693 31.927 144.892 32.4671C144.802 31.9142 144.738 31.4062 144.68 30.9304C144.628 30.4675 144.603 30.0495 144.603 29.683V4.18262H147.297V35.3412H143.812L128.348 8.98564C128.175 8.67702 128.014 8.34267 127.866 7.97617C127.718 7.60968 127.577 7.17245 127.448 6.68379C127.538 7.40392 127.596 7.99546 127.641 8.47126C127.686 8.94064 127.705 9.26212 127.705 9.42287V35.3412H125.011V4.18262H125.018ZM170.354 6.77381L163.384 24.2499H177.092L170.354 6.77381ZM168.643 4.18262H172.199L184.544 35.3412H181.406L178.121 26.8668H162.22L158.947 35.3476H155.99L168.643 4.18262Z" fill="white"/>
<path fill-rule="evenodd" clip-rule="evenodd" d="M0.40332 69.9846L3.48317 61.7288H4.62767L7.91328 69.9846H6.69805L5.75931 67.4834H2.4094L1.52853 69.9846H0.40332ZM2.71803 66.5961H5.43782L4.60195 64.3135C4.34476 63.6191 4.1583 63.0468 4.03613 62.6032C3.93326 63.1369 3.7918 63.6577 3.60534 64.1785L2.71803 66.5961ZM13.3207 66.744V65.7795L16.7156 65.7731V68.8336C16.1948 69.2644 15.6547 69.5859 15.1017 69.7981C14.5488 70.0167 13.9765 70.1196 13.3979 70.1196C12.607 70.1196 11.8933 69.946 11.2503 69.5988C10.6073 69.2516 10.1187 68.75 9.79076 68.0942C9.46285 67.4384 9.29567 66.7054 9.29567 65.8888C9.29567 65.0851 9.46285 64.3328 9.78433 63.6384C10.1123 62.944 10.5816 62.4232 11.1925 62.0824C11.8033 61.748 12.5106 61.5744 13.3078 61.5744C13.8865 61.5744 14.4138 61.6709 14.8831 61.8638C15.3525 62.0567 15.719 62.3267 15.9826 62.6739C16.2527 63.0211 16.452 63.4712 16.5934 64.0242L15.6418 64.3071C15.5197 63.8891 15.3718 63.5548 15.1918 63.3169C15.0117 63.079 14.7545 62.8861 14.4266 62.7382C14.0987 62.5968 13.7258 62.5196 13.3207 62.5196C12.832 62.5196 12.4141 62.5968 12.0605 62.7511C11.7068 62.9054 11.4239 63.1047 11.2053 63.349C10.9867 63.5998 10.8195 63.8699 10.6974 64.1656C10.4916 64.6736 10.3887 65.2265 10.3887 65.8245C10.3887 66.5639 10.5109 67.1748 10.7617 67.6698C11.006 68.1649 11.3661 68.5314 11.8354 68.7758C12.3048 69.0137 12.8063 69.1358 13.3336 69.1358C13.7965 69.1358 14.2402 69.0458 14.6774 68.8594C15.1146 68.6793 15.449 68.4864 15.674 68.2742V66.7375H13.3207V66.744ZM19.1139 69.9846V61.7288H24.9136V62.7061H20.1748V65.233H24.6114V66.2039H20.1748V69.0137H25.0936V69.991H19.1139V69.9846ZM22.0909 60.2628L21.4736 61.2208H20.3484L21.5315 59.6455H22.586L23.8076 61.2208H22.6889L22.0909 60.2628ZM27.3569 69.9846V61.7288H28.4435L32.655 68.2099V61.7288H33.6709V69.9846H32.5843L28.3728 63.4969V69.9846H27.3569ZM41.991 67.0912L43.0519 67.3676C42.8269 68.2614 42.4282 68.9494 41.8495 69.4187C41.2709 69.8881 40.5636 70.126 39.7277 70.126C38.8661 70.126 38.1588 69.946 37.6188 69.5859C37.0787 69.2258 36.6671 68.6986 36.3842 68.0106C36.1013 67.3226 35.9599 66.5832 35.9599 65.7988C35.9599 64.9372 36.1206 64.1913 36.4357 63.5484C36.7572 62.9054 37.2072 62.4232 37.7988 62.0888C38.3839 61.7545 39.0333 61.5937 39.7406 61.5937C40.5443 61.5937 41.2194 61.8059 41.7659 62.2238C42.3125 62.6418 42.6918 63.2333 42.9104 63.9985L41.8688 64.2492C41.6824 63.6448 41.4123 63.214 41.0587 62.9375C40.705 62.6611 40.2614 62.526 39.7213 62.526C39.104 62.526 38.5896 62.6804 38.1781 62.9826C37.7666 63.2848 37.4709 63.6963 37.3037 64.2106C37.1365 64.725 37.0529 65.2523 37.0529 65.7924C37.0529 66.4932 37.1494 67.104 37.3487 67.6313C37.548 68.1521 37.8567 68.5443 38.2746 68.8079C38.6925 69.0651 39.149 69.1937 39.6377 69.1937C40.2292 69.1937 40.7372 69.0201 41.1487 68.6665C41.5666 68.3064 41.8431 67.7856 41.991 67.0912ZM45.3473 69.9846V61.7288H46.4082V69.9846H45.3473ZM48.2086 69.9846L51.2884 61.7288H52.4329L55.7185 69.9846H54.5097L53.571 67.4834H50.2146L49.3338 69.9846H48.2086ZM50.5233 66.5961H53.2431L52.4072 64.3135C52.1564 63.6191 51.9635 63.0468 51.8414 62.6032C51.7385 63.1369 51.597 63.6577 51.4106 64.1785L50.5233 66.5961ZM59.0491 69.9846V61.7288H60.1358L64.3472 68.2099V61.7288H65.3632V69.9846H64.2765L60.065 63.4969V69.9846H59.0491ZM67.0735 69.9846L70.1533 61.7288H71.2978L74.5834 69.9846H73.3746L72.4423 67.4834H69.086L68.2051 69.9846H67.0735ZM69.3882 66.5961H72.108L71.2721 64.3135C71.0149 63.6191 70.8284 63.0468 70.7063 62.6032C70.6034 63.1369 70.4619 63.6577 70.2755 64.1785L69.3882 66.5961ZM81.9584 67.0912L83.0193 67.3676C82.7942 68.2614 82.3956 68.9494 81.8169 69.4187C81.2382 69.8881 80.5309 70.126 79.6951 70.126C78.8335 70.126 78.1262 69.946 77.5861 69.5859C77.046 69.2258 76.6345 68.6986 76.3516 68.0106C76.0687 67.3226 75.9272 66.5832 75.9272 65.7988C75.9272 64.9372 76.088 64.1913 76.403 63.5484C76.7245 62.9054 77.1746 62.4232 77.7661 62.0888C78.3513 61.7545 79.0007 61.5937 79.7079 61.5937C80.5117 61.5937 81.1868 61.8059 81.7333 62.2238C82.2798 62.6418 82.6592 63.2333 82.8778 63.9985L81.8362 64.2492C81.6497 63.6448 81.3797 63.214 81.026 62.9375C80.6724 62.6611 80.2287 62.526 79.6886 62.526C79.0714 62.526 78.557 62.6804 78.1455 62.9826C77.734 63.2848 77.4382 63.6963 77.2711 64.2106C77.1039 64.725 77.0203 65.2523 77.0203 65.7924C77.0203 66.4932 77.1167 67.104 77.3161 67.6313C77.5154 68.1521 77.824 68.5443 78.242 68.8079C78.6599 69.0651 79.1164 69.1937 79.6051 69.1937C80.1966 69.1937 80.7046 69.0201 81.1161 68.6665C81.534 68.3064 81.8169 67.7856 81.9584 67.0912ZM85.3211 69.9846V61.7288H86.382V69.9846H85.3211ZM88.7353 65.966C88.7353 64.5964 89.089 63.5227 89.8091 62.7511C90.5228 61.9731 91.4487 61.5873 92.5803 61.5873C93.3197 61.5873 93.9884 61.7673 94.58 62.1338C95.1715 62.5003 95.628 63.0083 95.9366 63.6577C96.2453 64.3071 96.406 65.0465 96.406 65.8695C96.406 66.7054 96.2453 67.4577 95.9174 68.1135C95.5894 68.7758 95.1265 69.2773 94.5221 69.6116C93.9177 69.9524 93.2683 70.1196 92.5739 70.1196C91.8152 70.1196 91.1465 69.9331 90.5485 69.5538C89.9505 69.1808 89.5005 68.6665 89.1983 68.017C88.8896 67.3741 88.7353 66.6861 88.7353 65.966ZM89.8284 65.9788C89.8284 66.9754 90.0856 67.7599 90.6064 68.3321C91.1272 68.9044 91.7766 69.1937 92.561 69.1937C93.3583 69.1937 94.0206 68.9044 94.535 68.3257C95.0493 67.747 95.313 66.924 95.313 65.8631C95.313 65.1944 95.2037 64.6093 94.9786 64.1078C94.76 63.6062 94.4321 63.2205 94.0077 62.944C93.5834 62.6675 93.1075 62.5325 92.5803 62.5325C91.828 62.5325 91.1786 62.7961 90.6385 63.3298C90.0984 63.8506 89.8284 64.7379 89.8284 65.9788ZM98.5664 69.9846V61.7288H99.653L103.865 68.2099V61.7288H104.88V69.9846H103.794L99.5823 63.4969V69.9846H98.5664ZM106.597 69.9846L109.677 61.7288H110.822L114.107 69.9846H112.898L111.966 67.4834H108.61L107.729 69.9846H106.597ZM108.912 66.5961H111.632L110.796 64.3135C110.545 63.6191 110.352 63.0468 110.23 62.6032C110.127 63.1369 109.986 63.6577 109.799 64.1785L108.912 66.5961ZM115.715 69.9846V61.7288H116.775V69.0072H120.723V69.9846H115.715ZM124.691 69.9846V61.7288H127.455C128.079 61.7288 128.555 61.7673 128.883 61.8509C129.346 61.9602 129.731 62.1531 130.059 62.4425C130.484 62.8089 130.799 63.2783 131.011 63.8506C131.223 64.4228 131.326 65.0787 131.326 65.8116C131.326 66.4353 131.255 66.9947 131.114 67.477C130.972 67.9592 130.792 68.3643 130.567 68.6793C130.349 68.9944 130.104 69.2451 129.841 69.4252C129.577 69.6052 129.256 69.7467 128.883 69.8431C128.51 69.9395 128.079 69.9846 127.597 69.9846H124.691ZM125.751 69.0072H127.462C127.989 69.0072 128.407 68.9558 128.709 68.8529C129.011 68.75 129.249 68.6086 129.429 68.4221C129.68 68.1649 129.879 67.8177 130.014 67.3805C130.156 66.9433 130.227 66.416 130.227 65.7924C130.227 64.9308 130.085 64.2685 129.815 63.8056C129.539 63.3426 129.204 63.034 128.812 62.8732C128.529 62.7575 128.066 62.7061 127.442 62.7061H125.758V69.0072H125.751ZM133.609 69.9846V61.7288H139.408V62.7061H134.669V65.233H139.106V66.2039H134.669V69.0137H139.595V69.991H133.609V69.9846ZM143.292 69.9846L146.372 61.7288H147.516L150.802 69.9846H149.593L148.661 67.4834H145.304L144.423 69.9846H143.292ZM145.607 66.5961H148.326L147.49 64.3135C147.24 63.6191 147.047 63.0468 146.925 62.6032C146.822 63.1369 146.68 63.6577 146.494 64.1785L145.607 66.5961ZM146.269 61.2208L146.995 59.6455H148.288L147.085 61.2208H146.269ZM156.209 66.744V65.7795L159.604 65.7731V68.8336C159.083 69.2644 158.543 69.5859 157.99 69.7981C157.437 70.0167 156.865 70.1196 156.286 70.1196C155.495 70.1196 154.782 69.946 154.139 69.5988C153.496 69.2516 153.007 68.75 152.679 68.0942C152.351 67.4384 152.184 66.7054 152.184 65.8888C152.184 65.0851 152.351 64.3328 152.673 63.6384C153.001 62.944 153.47 62.4232 154.081 62.0824C154.692 61.748 155.399 61.5744 156.196 61.5744C156.775 61.5744 157.302 61.6709 157.772 61.8638C158.241 62.0567 158.607 62.3267 158.871 62.6739C159.141 63.0211 159.34 63.4712 159.482 64.0242L158.524 64.2942C158.402 63.8763 158.254 63.5419 158.074 63.304C157.894 63.0661 157.637 62.8732 157.309 62.7254C156.981 62.5839 156.608 62.5067 156.203 62.5067C155.721 62.5067 155.296 62.5839 154.943 62.7382C154.589 62.8925 154.306 63.0919 154.087 63.3362C153.869 63.587 153.702 63.857 153.579 64.1528C153.374 64.6607 153.271 65.2137 153.271 65.8116C153.271 66.5511 153.393 67.1619 153.644 67.657C153.888 68.1521 154.248 68.5186 154.717 68.7629C155.187 69.0008 155.688 69.123 156.216 69.123C156.679 69.123 157.122 69.033 157.559 68.8465C157.997 68.6665 158.331 68.4736 158.556 68.2614V66.7247H156.209V66.744ZM167.243 61.7288H168.304V66.4996C168.304 67.3291 168.214 67.9849 168.027 68.4736C167.841 68.9622 167.513 69.3609 167.037 69.6631C166.561 69.9717 165.937 70.1196 165.166 70.1196C164.414 70.1196 163.796 69.9846 163.32 69.7209C162.845 69.4573 162.504 69.0715 162.298 68.5636C162.092 68.0556 161.99 67.3676 161.99 66.4932V61.7223H163.05V66.4868C163.05 67.2005 163.115 67.7341 163.243 68.0685C163.372 68.4093 163.597 68.6729 163.912 68.8529C164.227 69.0394 164.613 69.1294 165.069 69.1294C165.847 69.1294 166.407 68.9429 166.741 68.5829C167.069 68.2228 167.236 67.522 167.236 66.4868V61.7288H167.243ZM169.995 69.9846L173.074 61.7288H174.219L177.505 69.9846H176.296L175.357 67.4834H172.001L171.12 69.9846H169.995ZM172.309 66.5961H175.029L174.193 64.3135C173.942 63.6191 173.75 63.0468 173.627 62.6032C173.525 63.1369 173.383 63.6577 173.197 64.1785L172.309 66.5961ZM178.797 67.3291L179.8 67.239C179.845 67.6506 179.954 67.9913 180.128 68.255C180.301 68.5186 180.572 68.7308 180.932 68.8979C181.298 69.0587 181.71 69.1423 182.16 69.1423C182.565 69.1423 182.918 69.078 183.233 68.9558C183.542 68.8336 183.774 68.66 183.928 68.4478C184.082 68.2292 184.153 67.9978 184.153 67.7406C184.153 67.4834 184.082 67.2583 183.934 67.0654C183.786 66.8726 183.548 66.7118 183.214 66.5768C182.996 66.4932 182.526 66.3582 181.787 66.1717C181.047 65.9852 180.533 65.8181 180.237 65.6573C179.851 65.4516 179.568 65.1944 179.382 64.8858C179.196 64.5771 179.099 64.2364 179.099 63.857C179.099 63.4391 179.215 63.0533 179.44 62.6932C179.671 62.3267 180.006 62.0567 180.449 61.8638C180.893 61.6773 181.382 61.5809 181.922 61.5809C182.52 61.5809 183.041 61.6773 183.497 61.8766C183.954 62.076 184.301 62.3653 184.545 62.7447C184.789 63.124 184.918 63.5612 184.937 64.0435L183.921 64.1206C183.864 63.5998 183.684 63.2012 183.362 62.9375C183.047 62.6739 182.584 62.5389 181.967 62.5389C181.324 62.5389 180.854 62.6611 180.565 62.899C180.269 63.1433 180.121 63.4326 180.121 63.7734C180.121 64.0692 180.224 64.3135 180.436 64.5064C180.642 64.6993 181.176 64.8922 182.038 65.0915C182.899 65.2908 183.491 65.4709 183.812 65.6188C184.281 65.8438 184.622 66.1203 184.847 66.461C185.072 66.8018 185.182 67.194 185.182 67.6377C185.182 68.0749 185.059 68.4929 184.815 68.8786C184.571 69.2644 184.217 69.5666 183.761 69.7852C183.304 70.0038 182.79 70.1067 182.218 70.1067C181.491 70.1067 180.88 69.9974 180.391 69.7788C179.903 69.5602 179.517 69.2323 179.234 68.7951C178.958 68.3771 178.816 67.882 178.797 67.3291Z" fill="white"/>
<path d="M19.5957 82.8055V74.7104H25.4532V75.6685H20.6695V78.1504H25.151V79.102H20.6695V81.8603H25.6397V82.8184H19.5957V82.8055Z" fill="white"/>
<path d="M31.2549 80.2024L32.2644 80.1124C32.3158 80.5174 32.4251 80.8518 32.5987 81.109C32.7723 81.3662 33.0424 81.5783 33.4153 81.7391C33.7818 81.8998 34.1997 81.977 34.6562 81.977C35.0677 81.977 35.4278 81.9191 35.7364 81.797C36.0515 81.6748 36.283 81.5076 36.4373 81.2954C36.5916 81.0832 36.6687 80.8518 36.6687 80.601C36.6687 80.3438 36.598 80.1252 36.4501 79.9323C36.3022 79.7459 36.0579 79.5851 35.7236 79.4565C35.505 79.3729 35.0227 79.2379 34.2833 79.0643C33.5374 78.8843 33.0166 78.7171 32.7209 78.5564C32.3351 78.357 32.0457 78.0998 31.8593 77.8041C31.6728 77.5083 31.5764 77.1675 31.5764 76.7946C31.5764 76.3895 31.6921 76.0037 31.9236 75.6501C32.1551 75.2965 32.4958 75.0264 32.9395 74.84C33.3831 74.6535 33.8782 74.5635 34.4248 74.5635C35.0227 74.5635 35.5564 74.6599 36.0129 74.8528C36.4694 75.0457 36.8231 75.3286 37.0738 75.708C37.3246 76.0873 37.4532 76.5117 37.4725 76.9811L36.4437 77.0582C36.3858 76.5438 36.1994 76.1581 35.8843 75.9009C35.5628 75.6372 35.0934 75.5086 34.4698 75.5086C33.8204 75.5086 33.351 75.6244 33.0552 75.8623C32.7594 76.1002 32.6116 76.3895 32.6116 76.7239C32.6116 77.0132 32.7144 77.2511 32.9266 77.444C33.1324 77.6305 33.6725 77.8234 34.5405 78.0227C35.4085 78.222 36.0065 78.3956 36.3344 78.5371C36.8038 78.7557 37.151 79.0322 37.376 79.3665C37.6011 79.7008 37.7104 80.0802 37.7104 80.5174C37.7104 80.9482 37.5882 81.3533 37.3374 81.7327C37.0931 82.112 36.733 82.4078 36.2765 82.62C35.8136 82.8321 35.2928 82.935 34.7141 82.935C33.9811 82.935 33.3703 82.8257 32.8688 82.6135C32.3737 82.4013 31.9879 82.0799 31.705 81.6491C31.4221 81.2311 31.2742 80.7425 31.2549 80.2024Z" fill="white"/>
<path d="M38.957 82.8055L42.069 74.7104H43.2264L46.5377 82.8055H45.3161L44.3709 80.3558H40.9824L40.0951 82.8055H38.957ZM41.291 79.4749H44.0365L43.1942 77.2309C42.9371 76.5494 42.7442 75.99 42.622 75.5527C42.5191 76.0736 42.3712 76.5879 42.1848 77.0959L41.291 79.4749Z" fill="white"/>
<path d="M48.0596 82.8055V74.7104H49.1591L53.4156 81.0695V74.7104H54.4443V82.8055H53.3448L49.0883 76.44V82.8055H48.0596Z" fill="white"/>
<path d="M56.9395 82.8055V74.7104H62.797V75.6685H58.0132V78.1504H62.4948V79.102H58.0132V81.8603H62.9834V82.8184H56.9395V82.8055Z" fill="white"/>
<path d="M64.25 82.8055L67.362 74.7104H68.5194L71.8307 82.8055H70.609L69.6639 80.3558H66.2754L65.3881 82.8055H64.25ZM66.5904 79.4749H69.3359L68.4936 77.2309C68.2364 76.5494 68.0436 75.99 67.9214 75.5527C67.8185 76.0736 67.6706 76.5879 67.4842 77.0959L66.5904 79.4749Z" fill="white"/>
<path d="M73.3359 82.8055V74.7104H74.9498L76.8659 80.4458C77.0395 80.9795 77.1681 81.3781 77.2517 81.6417C77.3417 81.346 77.4896 80.9152 77.6825 80.3429L79.6242 74.7104H81.0645V82.8055H80.0293V76.0285L77.676 82.8055H76.7116L74.3711 75.9128V82.8055H73.3359Z" fill="white"/>
<path d="M83.4883 82.8055V74.7104H89.3458V75.6685H84.5621V78.1504H89.0436V79.102H84.5621V81.8603H89.5323V82.8184H83.4883V82.8055Z" fill="white"/>
<path d="M91.6787 82.8055V74.7104H92.7782L97.0283 81.0695V74.7104H98.057V82.8055H96.9575L92.7075 76.44V82.8055H91.6787Z" fill="white"/>
<path d="M102.603 82.8066V75.6631H99.9346V74.7051H106.351V75.6631H103.67V82.8066H102.603Z" fill="white"/>
<path d="M107.6 78.8586C107.6 77.5147 107.96 76.4603 108.68 75.7015C109.4 74.9428 110.332 74.5635 111.477 74.5635C112.223 74.5635 112.898 74.7435 113.496 75.0971C114.094 75.4572 114.557 75.9523 114.872 76.5888C115.187 77.2254 115.341 77.952 115.341 78.7621C115.341 79.5851 115.174 80.3181 114.846 80.9675C114.512 81.6169 114.042 82.1056 113.438 82.4399C112.827 82.7743 112.178 82.9415 111.47 82.9415C110.705 82.9415 110.024 82.755 109.426 82.3885C108.828 82.022 108.371 81.514 108.063 80.8775C107.754 80.2474 107.6 79.5723 107.6 78.8586ZM108.706 78.8778C108.706 79.8552 108.969 80.6203 109.49 81.1861C110.017 81.7455 110.673 82.0284 111.464 82.0284C112.268 82.0284 112.936 81.7455 113.457 81.1797C113.978 80.6139 114.242 79.8102 114.242 78.7685C114.242 78.1127 114.132 77.534 113.907 77.0454C113.682 76.5567 113.361 76.1709 112.93 75.9009C112.499 75.6308 112.017 75.4958 111.483 75.4958C110.724 75.4958 110.069 75.753 109.522 76.2802C108.982 76.7882 108.706 77.6562 108.706 78.8778Z" fill="white"/>
<path d="M121.179 82.8055V74.7104H124.22C124.837 74.7104 125.332 74.794 125.705 74.9548C126.078 75.1219 126.374 75.3727 126.586 75.7135C126.798 76.0543 126.901 76.4079 126.901 76.7808C126.901 77.128 126.805 77.4495 126.618 77.7581C126.432 78.0603 126.149 78.3111 125.77 78.4976C126.258 78.639 126.638 78.8834 126.901 79.2306C127.165 79.5778 127.293 79.9828 127.293 80.4586C127.293 80.838 127.216 81.1916 127.056 81.5196C126.895 81.8475 126.695 82.0982 126.464 82.2718C126.226 82.4454 125.93 82.5805 125.577 82.6705C125.223 82.7605 124.786 82.8055 124.271 82.8055H121.179ZM122.252 78.1054H124.001C124.477 78.1054 124.818 78.0732 125.024 78.0089C125.294 77.9253 125.5 77.7903 125.641 77.6038C125.776 77.4174 125.847 77.1795 125.847 76.8966C125.847 76.6265 125.782 76.3886 125.654 76.1893C125.525 75.9835 125.339 75.8421 125.101 75.7714C124.863 75.6942 124.451 75.6556 123.866 75.6556H122.246V78.1054H122.252ZM122.252 81.8475H124.271C124.619 81.8475 124.863 81.8346 124.998 81.8089C125.242 81.7639 125.448 81.6932 125.615 81.5903C125.782 81.4874 125.917 81.3395 126.02 81.1402C126.13 80.9409 126.181 80.7158 126.181 80.4586C126.181 80.1564 126.104 79.8928 125.95 79.6742C125.795 79.4492 125.583 79.2949 125.307 79.2048C125.03 79.1148 124.638 79.0698 124.124 79.0698H122.252V81.8475Z" fill="white"/>
<path d="M128.562 82.8062L131.674 74.7112H132.831L136.142 82.8062H134.921L133.975 80.3565H130.587L129.7 82.8062H128.562ZM130.902 79.4756H133.647L132.805 77.2316C132.548 76.5501 132.355 75.9907 132.233 75.5535C132.13 76.0743 131.982 76.5887 131.796 77.0966L130.902 79.4756ZM131.571 74.2096L132.304 72.6665H133.609L132.394 74.2096H131.571Z" fill="white"/>
<path d="M137.312 80.2024L138.321 80.1124C138.366 80.5174 138.482 80.8518 138.655 81.109C138.829 81.3662 139.099 81.5783 139.472 81.7391C139.838 81.8998 140.256 81.977 140.713 81.977C141.118 81.977 141.484 81.9191 141.793 81.797C142.108 81.6748 142.34 81.5076 142.494 81.2954C142.648 81.0832 142.725 80.8518 142.725 80.601C142.725 80.3438 142.655 80.1252 142.507 79.9323C142.359 79.7459 142.115 79.5851 141.78 79.4565C141.562 79.3729 141.079 79.2379 140.34 79.0643C139.594 78.8843 139.073 78.7171 138.778 78.5564C138.392 78.357 138.102 78.0998 137.916 77.8041C137.723 77.5019 137.633 77.1675 137.633 76.7946C137.633 76.3895 137.749 76.0037 137.98 75.6501C138.212 75.2965 138.552 75.0264 138.996 74.84C139.44 74.6535 139.935 74.5635 140.481 74.5635C141.079 74.5635 141.613 74.6599 142.07 74.8528C142.526 75.0457 142.88 75.3286 143.13 75.708C143.375 76.0809 143.51 76.5117 143.529 76.9811L142.5 77.0582C142.442 76.5438 142.256 76.1581 141.941 75.9009C141.619 75.6372 141.15 75.5086 140.526 75.5086C139.877 75.5086 139.408 75.6244 139.112 75.8623C138.816 76.1002 138.668 76.3895 138.668 76.7239C138.668 77.0132 138.771 77.2511 138.983 77.444C139.189 77.6305 139.729 77.8234 140.597 78.0227C141.472 78.222 142.063 78.3956 142.391 78.5371C142.86 78.7557 143.208 79.0322 143.433 79.3665C143.658 79.7008 143.767 80.0802 143.767 80.5174C143.767 80.9482 143.645 81.3533 143.394 81.7327C143.15 82.112 142.79 82.4078 142.333 82.62C141.87 82.8321 141.349 82.935 140.771 82.935C140.038 82.935 139.42 82.8257 138.925 82.6135C138.43 82.4013 138.045 82.0799 137.762 81.6491C137.472 81.2311 137.324 80.7425 137.312 80.2024Z" fill="white"/>
<path d="M146.081 82.8055V74.7104H147.155V82.8055H146.081Z" fill="white"/>
<path d="M155.502 79.9645L156.576 80.2345C156.351 81.1154 155.946 81.7841 155.361 82.247C154.776 82.71 154.062 82.9415 153.219 82.9415C152.345 82.9415 151.638 82.7614 151.091 82.4078C150.545 82.0541 150.127 81.5398 149.844 80.8646C149.561 80.1895 149.413 79.4694 149.413 78.6914C149.413 77.8491 149.574 77.1097 149.895 76.486C150.217 75.8559 150.673 75.3801 151.271 75.0521C151.869 74.7242 152.519 74.5635 153.232 74.5635C154.043 74.5635 154.724 74.7692 155.277 75.1807C155.83 75.5922 156.216 76.1709 156.434 76.9232L155.38 77.174C155.193 76.5824 154.917 76.1581 154.563 75.888C154.203 75.618 153.76 75.4829 153.213 75.4829C152.589 75.4829 152.069 75.6308 151.651 75.933C151.233 76.2288 150.937 76.6339 150.77 77.1354C150.603 77.6369 150.519 78.1577 150.519 78.6914C150.519 79.3794 150.622 79.9838 150.821 80.4917C151.021 81.0061 151.336 81.3919 151.76 81.6426C152.184 81.8998 152.641 82.022 153.136 82.022C153.734 82.022 154.242 81.8484 154.66 81.5012C155.071 81.1604 155.354 80.646 155.502 79.9645Z" fill="white"/>
<path d="M158.247 78.8586C158.247 77.5147 158.607 76.4603 159.327 75.7015C160.047 74.9428 160.98 74.5635 162.124 74.5635C162.87 74.5635 163.545 74.7435 164.143 75.0971C164.741 75.4572 165.204 75.9523 165.519 76.5888C165.834 77.2254 165.989 77.952 165.989 78.7621C165.989 79.5851 165.821 80.3181 165.493 80.9675C165.159 81.6169 164.69 82.1056 164.085 82.4399C163.481 82.7743 162.825 82.9415 162.118 82.9415C161.353 82.9415 160.671 82.755 160.073 82.3885C159.475 82.022 159.019 81.514 158.71 80.8775C158.401 80.2474 158.247 79.5723 158.247 78.8586ZM159.347 78.8778C159.347 79.8552 159.61 80.6203 160.131 81.1861C160.658 81.7455 161.314 82.0284 162.105 82.0284C162.909 82.0284 163.577 81.7455 164.098 81.1797C164.619 80.6139 164.883 79.8102 164.883 78.7685C164.883 78.1127 164.773 77.534 164.548 77.0454C164.323 76.5567 164.002 76.1709 163.571 75.9009C163.14 75.6308 162.658 75.4958 162.124 75.4958C161.366 75.4958 160.716 75.753 160.163 76.2802C159.623 76.7882 159.347 77.6562 159.347 78.8778Z" fill="white"/>
</svg>
