<svg width="109" height="49" viewBox="0 0 109 49" fill="none" xmlns="http://www.w3.org/2000/svg">
<path fill-rule="evenodd" clip-rule="evenodd" d="M1.27051 14.8788C7.46488 10.9812 13.6144 7.08349 19.8125 3.18956C23.8972 0.0848957 27.6377 -0.539778 30.6115 4.29677C32.4331 6.97501 34.2585 9.64951 36.0802 12.3278C37.0041 13.6669 38.3881 13.8053 40.2322 12.743C42.4952 11.3477 44.7545 9.95624 47.0176 8.56101V10.2256C43.9017 12.1968 40.7858 14.1644 37.6699 16.1356C34.2772 17.8675 31.902 17.0596 29.9868 15.0958C29.3397 14.127 28.6963 13.1582 28.0492 12.1894C23.8261 8.56475 20.3661 7.73435 17.2502 8.17573C18.4135 7.30044 19.3299 6.31667 24.4508 7.13586C24.0356 6.58225 23.6204 6.02865 23.2052 5.47505C22.0269 4.31547 20.8524 4.7793 19.6741 5.47505C13.5396 9.21561 7.40503 12.9562 1.27051 16.6967V14.8788Z" fill="#2B2B2B"/>
<path fill-rule="evenodd" clip-rule="evenodd" d="M1.27051 18.2901C5.33276 15.7241 9.39501 13.1581 13.4722 10.5958C17.5569 7.49115 21.2937 6.86647 24.2712 11.703C26.0929 14.3813 27.9183 17.0558 29.7399 19.734C30.6638 21.0731 32.0479 21.2115 33.8919 20.1492C36.155 18.754 44.6348 13.2329 47.0176 11.7591V13.4237C43.8119 15.4511 34.4456 21.5706 31.3297 23.5419C27.8921 25.184 25.4345 24.6042 23.6466 22.502L16.8649 12.8776C15.6866 11.718 14.5121 12.1818 13.3338 12.8776C9.31272 15.3314 5.29161 17.7814 1.27051 20.2352V18.2901Z" fill="#2B2B2B"/>
<path fill-rule="evenodd" clip-rule="evenodd" d="M1.27051 21.7501C7.0609 18.1031 2.14954 20.9833 8.32147 17.1044C12.4062 13.9997 16.1467 13.375 19.1205 18.2116C20.9421 20.8898 22.7675 23.5643 24.5892 26.2426C25.5131 27.5817 26.8971 27.7201 28.7449 26.6578C31.0304 25.2513 44.7396 16.5021 47.0213 15.0957C47.0213 15.6493 47.0213 16.2029 47.0213 16.7602C43.883 18.7427 29.321 28.0679 26.1826 30.0504C22.79 31.7823 20.4147 30.9744 18.4995 29.0106C17.8524 28.0418 17.209 27.073 16.5619 26.1042C12.3351 22.4795 8.87507 21.6491 5.75918 22.0905C6.9225 21.2152 7.83893 20.2315 12.9598 21.0507C12.5446 20.497 12.1294 19.9434 11.7142 19.3898C10.5359 18.2303 9.36134 18.6941 8.18307 19.3898C2.07473 23.1117 7.01975 20.0893 1.27051 23.5942V21.7501Z" fill="#2B2B2B"/>
<path fill-rule="evenodd" clip-rule="evenodd" d="M60.3719 4.50989L56.3134 14.6767H64.2882L60.3719 4.50989ZM59.3731 3.00244H61.4417L68.6236 21.1292H66.7982L64.8867 16.1954H55.6363L53.7324 21.1292H52.0117L59.3731 3.00244ZM73.2544 3.00244H75.3977L84.2666 18.2078C84.3264 18.3051 84.4012 18.4547 84.4985 18.6679C84.5883 18.8774 84.7005 19.143 84.8165 19.4572C84.7641 19.1355 84.7267 18.84 84.693 18.5632C84.6631 18.2939 84.6481 18.0507 84.6481 17.8375V3.00244H86.2154V21.1292H84.188L75.192 5.79664C75.091 5.61709 74.9975 5.42258 74.9114 5.20937C74.8254 4.99616 74.7431 4.7418 74.6683 4.45752C74.7207 4.87646 74.7543 5.22059 74.7805 5.4974C74.8067 5.77046 74.8179 5.95748 74.8179 6.051V21.1292H73.2506V3.00244H73.2544ZM99.6291 4.50989L95.5743 14.6767H103.549L99.6291 4.50989ZM98.6341 3.00244H100.703L107.884 21.1292H106.059L104.148 16.1991H94.8973L92.9933 21.1329H91.2727L98.6341 3.00244Z" fill="#2B2B2B"/>
<path fill-rule="evenodd" clip-rule="evenodd" d="M0.758301 41.2834L2.55003 36.4805H3.21585L5.12728 41.2834H4.42031L3.87419 39.8283H1.92536L1.4129 41.2834H0.758301ZM2.1049 39.3121H3.68716L3.20089 37.9842C3.05127 37.5802 2.94279 37.2473 2.87172 36.9892C2.81187 37.2997 2.72958 37.6027 2.6211 37.9057L2.1049 39.3121ZM8.27309 39.3981V38.8371L10.2481 38.8333V40.6138C9.94512 40.8644 9.63092 41.0515 9.30923 41.1749C8.98754 41.3021 8.65463 41.3619 8.31798 41.3619C7.85789 41.3619 7.44269 41.2609 7.06863 41.0589C6.69457 40.857 6.41029 40.5652 6.21952 40.1837C6.02875 39.8021 5.9315 39.3757 5.9315 38.9006C5.9315 38.4331 6.02875 37.9954 6.21578 37.5914C6.40655 37.1875 6.67961 36.8845 7.03496 36.6862C7.39032 36.4917 7.80178 36.3907 8.26561 36.3907C8.60226 36.3907 8.90899 36.4468 9.18205 36.559C9.45511 36.6713 9.66832 36.8284 9.82168 37.0304C9.97879 37.2323 10.0947 37.4942 10.177 37.8159L9.62343 37.9805C9.55236 37.7373 9.46633 37.5428 9.36159 37.4044C9.25686 37.266 9.10724 37.1538 8.91647 37.0678C8.7257 36.9855 8.50875 36.9406 8.27309 36.9406C7.98881 36.9406 7.74567 36.9855 7.53994 37.0752C7.33421 37.165 7.16962 37.281 7.04245 37.4231C6.91527 37.569 6.81801 37.7261 6.74694 37.8982C6.62724 38.1937 6.56739 38.5154 6.56739 38.8632C6.56739 39.2934 6.63847 39.6488 6.78435 39.9368C6.92649 40.2248 7.13596 40.438 7.40902 40.5802C7.68208 40.7186 7.97385 40.7896 8.28057 40.7896C8.54989 40.7896 8.80799 40.7373 9.06235 40.6288C9.31671 40.524 9.51122 40.4118 9.64214 40.2884V39.3944H8.27309V39.3981ZM11.6433 41.2834V36.4805H15.0173V37.0491H12.2605V38.5191H14.8415V39.0839H12.2605V40.7186H15.1221V41.2871H11.6433V41.2834ZM13.3752 35.6276L13.0161 36.185H12.3615L13.0498 35.2686H13.6632L14.3739 36.185H13.7231L13.3752 35.6276ZM16.4387 41.2834V36.4805H17.0709L19.521 40.251V36.4805H20.112V41.2834H19.4798L17.0297 37.5092V41.2834H16.4387ZM24.9523 39.6001L25.5695 39.761C25.4385 40.2809 25.2066 40.6811 24.87 40.9542C24.5333 41.2273 24.1219 41.3657 23.6356 41.3657C23.1343 41.3657 22.7229 41.2609 22.4087 41.0515C22.0945 40.842 21.8551 40.5353 21.6905 40.135C21.5259 39.7348 21.4436 39.3046 21.4436 38.8483C21.4436 38.347 21.5371 37.9131 21.7204 37.5391C21.9074 37.165 22.1693 36.8845 22.5134 36.69C22.8538 36.4955 23.2316 36.4019 23.6431 36.4019C24.1106 36.4019 24.5034 36.5254 24.8213 36.7685C25.1393 37.0117 25.36 37.3558 25.4872 37.8009L24.8812 37.9468C24.7727 37.5952 24.6156 37.3446 24.4099 37.1837C24.2041 37.0229 23.946 36.9443 23.6318 36.9443C23.2727 36.9443 22.9735 37.0341 22.7341 37.2099C22.4947 37.3857 22.3226 37.6251 22.2254 37.9244C22.1281 38.2236 22.0795 38.5303 22.0795 38.8445C22.0795 39.2523 22.1356 39.6076 22.2516 39.9143C22.3675 40.2173 22.5471 40.4455 22.7902 40.5989C23.0333 40.7485 23.2989 40.8233 23.5832 40.8233C23.9273 40.8233 24.2228 40.7223 24.4622 40.5166C24.7054 40.3071 24.8662 40.0041 24.9523 39.6001ZM26.9048 41.2834V36.4805H27.522V41.2834H26.9048ZM28.5694 41.2834L30.3611 36.4805H31.0269L32.9384 41.2834H32.2351L31.689 39.8283H29.7364L29.224 41.2834H28.5694ZM29.916 39.3121H31.4982L31.012 37.9842C30.8661 37.5802 30.7539 37.2473 30.6828 36.9892C30.623 37.2997 30.5407 37.6027 30.4322 37.9057L29.916 39.3121ZM34.876 41.2834V36.4805H35.5081L37.9582 40.251V36.4805H38.5492V41.2834H37.917L35.467 37.5092V41.2834H34.876ZM39.5442 41.2834L41.3359 36.4805H42.0017L43.9132 41.2834H43.2099L42.6676 39.8283H40.715L40.2025 41.2834H39.5442ZM40.8908 39.3121H42.4731L41.9868 37.9842C41.8372 37.5802 41.7287 37.2473 41.6576 36.9892C41.5978 37.2997 41.5155 37.6027 41.407 37.9057L40.8908 39.3121ZM48.2036 39.6001L48.8208 39.761C48.6899 40.2809 48.458 40.6811 48.1213 40.9542C47.7846 41.2273 47.3732 41.3657 46.8869 41.3657C46.3857 41.3657 45.9742 41.2609 45.66 41.0515C45.3458 40.842 45.1064 40.5353 44.9418 40.135C44.7772 39.7348 44.6949 39.3046 44.6949 38.8483C44.6949 38.347 44.7885 37.9131 44.9717 37.5391C45.1588 37.165 45.4206 36.8845 45.7647 36.69C46.1051 36.4955 46.4829 36.4019 46.8944 36.4019C47.362 36.4019 47.7547 36.5254 48.0727 36.7685C48.3906 37.0117 48.6113 37.3558 48.7385 37.8009L48.1325 37.9468C48.024 37.5952 47.8669 37.3446 47.6612 37.1837C47.4555 37.0229 47.1974 36.9443 46.8832 36.9443C46.5241 36.9443 46.2248 37.0341 45.9854 37.2099C45.746 37.3857 45.574 37.6251 45.4767 37.9244C45.3795 38.2236 45.3308 38.5303 45.3308 38.8445C45.3308 39.2523 45.387 39.6076 45.5029 39.9143C45.6189 40.2173 45.7984 40.4455 46.0415 40.5989C46.2847 40.7485 46.5503 40.8233 46.8346 40.8233C47.1787 40.8233 47.4742 40.7223 47.7136 40.5166C47.9567 40.3071 48.1213 40.0041 48.2036 39.6001ZM50.1599 41.2834V36.4805H50.7771V41.2834H50.1599ZM52.1461 38.9455C52.1461 38.1488 52.3519 37.5241 52.7708 37.0752C53.186 36.6226 53.7247 36.3982 54.383 36.3982C54.8132 36.3982 55.2022 36.5029 55.5463 36.7162C55.8904 36.9294 56.156 37.2249 56.3356 37.6027C56.5151 37.9805 56.6086 38.4106 56.6086 38.8894C56.6086 39.3757 56.5151 39.8133 56.3244 40.1949C56.1336 40.5802 55.8643 40.8719 55.5127 41.0664C55.161 41.2647 54.7832 41.3619 54.3793 41.3619C53.9379 41.3619 53.5489 41.2535 53.201 41.0328C52.8531 40.8158 52.5913 40.5166 52.4155 40.1388C52.2359 39.7647 52.1461 39.3645 52.1461 38.9455ZM52.782 38.953C52.782 39.5328 52.9317 39.9891 53.2347 40.3221C53.5376 40.655 53.9154 40.8233 54.3718 40.8233C54.8356 40.8233 55.2209 40.655 55.5201 40.3183C55.8194 39.9817 55.9727 39.5029 55.9727 38.8857C55.9727 38.4967 55.9092 38.1563 55.7782 37.8645C55.6511 37.5727 55.4603 37.3483 55.2134 37.1875C54.9665 37.0266 54.6897 36.9481 54.383 36.9481C53.9454 36.9481 53.5676 37.1014 53.2534 37.4119C52.9391 37.7149 52.782 38.2311 52.782 38.953ZM57.8655 41.2834V36.4805H58.4976L60.9477 40.251V36.4805H61.5387V41.2834H60.9065L58.4565 37.5092V41.2834H57.8655ZM62.5374 41.2834L64.3292 36.4805H64.995L66.9064 41.2834H66.2032L65.6608 39.8283H63.7082L63.1958 41.2834H62.5374ZM63.884 39.3121H65.4663L64.98 37.9842C64.8341 37.5802 64.7219 37.2473 64.6508 36.9892C64.591 37.2997 64.5087 37.6027 64.4002 37.9057L63.884 39.3121ZM67.8416 41.2834V36.4805H68.4587V40.7148H70.7554V41.2834H67.8416ZM73.0634 41.2834V36.4805H74.6718C75.0347 36.4805 75.3114 36.5029 75.5022 36.5516C75.7715 36.6152 75.996 36.7274 76.1867 36.8957C76.4336 37.1089 76.6169 37.382 76.7403 37.7149C76.8638 38.0478 76.9236 38.4293 76.9236 38.8558C76.9236 39.2186 76.8825 39.544 76.8002 39.8246C76.7179 40.1051 76.6132 40.3408 76.4822 40.524C76.3551 40.7073 76.2129 40.8532 76.0596 40.9579C75.9062 41.0627 75.7192 41.145 75.5022 41.2011C75.2853 41.2572 75.0346 41.2834 74.7541 41.2834H73.0634ZM73.6806 40.7148H74.6756C74.9823 40.7148 75.2254 40.6849 75.4012 40.625C75.577 40.5652 75.7154 40.4829 75.8202 40.3744C75.966 40.2248 76.082 40.0228 76.1606 39.7685C76.2429 39.5141 76.284 39.2074 76.284 38.8445C76.284 38.3433 76.2017 37.958 76.0446 37.6887C75.8838 37.4194 75.6892 37.2398 75.4611 37.1463C75.2965 37.079 75.0272 37.0491 74.6643 37.0491H73.6843V40.7148H73.6806ZM78.2515 41.2834V36.4805H81.6255V37.0491H78.8687V38.5191H81.4497V39.0839H78.8687V40.7186H81.734V41.2871H78.2515V41.2834ZM83.8848 41.2834L85.6766 36.4805H86.3424L88.2538 41.2834H87.5506L87.0082 39.8283H85.0556L84.5432 41.2834H83.8848ZM85.2314 39.3121H86.8137L86.3274 37.9842C86.1815 37.5802 86.0693 37.2473 85.9982 36.9892C85.9384 37.2997 85.8561 37.6027 85.7476 37.9057L85.2314 39.3121ZM85.6167 36.185L86.0394 35.2686H86.7912L86.0918 36.185H85.6167ZM91.3996 39.3981V38.8371L93.3746 38.8333V40.6138C93.0716 40.8644 92.7574 41.0515 92.4357 41.1749C92.1141 41.3021 91.7811 41.3619 91.4445 41.3619C90.9844 41.3619 90.5692 41.2609 90.1952 41.0589C89.8211 40.857 89.5368 40.5652 89.346 40.1837C89.1553 39.8021 89.058 39.3757 89.058 38.9006C89.058 38.4331 89.1553 37.9954 89.3423 37.5914C89.5331 37.1875 89.8061 36.8845 90.1615 36.6862C90.5168 36.4917 90.9283 36.3907 91.3921 36.3907C91.7288 36.3907 92.0355 36.4468 92.3086 36.559C92.5816 36.6713 92.7948 36.8284 92.9482 37.0304C93.1053 37.2323 93.2213 37.4942 93.3036 37.8159L92.7462 37.973C92.6751 37.7298 92.5891 37.5353 92.4844 37.3969C92.3796 37.2585 92.23 37.1463 92.0392 37.0603C91.8485 36.978 91.6315 36.9331 91.3959 36.9331C91.1153 36.9331 90.8685 36.978 90.6627 37.0678C90.457 37.1575 90.2924 37.2735 90.1652 37.4156C90.038 37.5615 89.9408 37.7186 89.8697 37.8907C89.75 38.1862 89.6902 38.5079 89.6902 38.8558C89.6902 39.2859 89.7612 39.6413 89.9071 39.9293C90.0493 40.2173 90.2587 40.4305 90.5318 40.5727C90.8049 40.7111 91.0966 40.7821 91.4034 40.7821C91.6727 40.7821 91.9308 40.7298 92.1851 40.6213C92.4395 40.5166 92.634 40.4043 92.7649 40.2809V39.3869H91.3996V39.3981ZM97.8184 36.4805H98.4356V39.256C98.4356 39.7385 98.3832 40.1201 98.2748 40.4043C98.1663 40.6886 97.9755 40.9205 97.6987 41.0964C97.4219 41.2759 97.0591 41.3619 96.6102 41.3619C96.1726 41.3619 95.8135 41.2834 95.5367 41.13C95.2599 40.9767 95.0616 40.7522 94.9419 40.4567C94.8222 40.1612 94.7624 39.761 94.7624 39.2523V36.4768H95.3796V39.2485C95.3796 39.6637 95.417 39.9742 95.4918 40.1687C95.5666 40.3669 95.6975 40.5203 95.8808 40.625C96.0641 40.7335 96.2885 40.7859 96.5541 40.7859C97.0067 40.7859 97.3321 40.6774 97.5266 40.4679C97.7174 40.2585 97.8147 39.8507 97.8147 39.2485V36.4805H97.8184ZM99.4194 41.2834L101.211 36.4805H101.877L103.788 41.2834H103.085L102.539 39.8283H100.586L100.074 41.2834H99.4194ZM100.766 39.3121H102.348L101.862 37.9842C101.716 37.5802 101.604 37.2473 101.533 36.9892C101.473 37.2997 101.391 37.6027 101.282 37.9057L100.766 39.3121ZM104.54 39.7385L105.124 39.6862C105.15 39.9256 105.214 40.1238 105.314 40.2772C105.415 40.4305 105.573 40.554 105.782 40.6512C105.995 40.7447 106.235 40.7934 106.497 40.7934C106.732 40.7934 106.938 40.756 107.121 40.6849C107.301 40.6138 107.435 40.5128 107.525 40.3894C107.615 40.2622 107.656 40.1275 107.656 39.9779C107.656 39.8283 107.615 39.6974 107.529 39.5852C107.443 39.4729 107.304 39.3794 107.11 39.3009C106.983 39.2523 106.71 39.1737 106.28 39.0652C105.849 38.9567 105.55 38.8595 105.378 38.766C105.154 38.6463 104.989 38.4967 104.881 38.3171C104.772 38.1376 104.716 37.9393 104.716 37.7186C104.716 37.4755 104.783 37.2511 104.914 37.0416C105.049 36.8284 105.243 36.6713 105.502 36.559C105.76 36.4506 106.044 36.3945 106.358 36.3945C106.706 36.3945 107.009 36.4506 107.275 36.5665C107.54 36.6825 107.742 36.8508 107.884 37.0715C108.026 37.2922 108.101 37.5466 108.112 37.8271L107.521 37.872C107.488 37.569 107.383 37.3371 107.196 37.1837C107.013 37.0304 106.743 36.9518 106.384 36.9518C106.01 36.9518 105.737 37.0229 105.569 37.1613C105.397 37.3034 105.311 37.4717 105.311 37.67C105.311 37.8421 105.371 37.9842 105.494 38.0964C105.614 38.2086 105.924 38.3209 106.425 38.4368C106.927 38.5528 107.271 38.6575 107.458 38.7435C107.731 38.8745 107.929 39.0353 108.06 39.2336C108.191 39.4318 108.255 39.66 108.255 39.9181C108.255 40.1724 108.184 40.4156 108.041 40.64C107.899 40.8644 107.693 41.0402 107.428 41.1674C107.162 41.2946 106.863 41.3544 106.53 41.3544C106.107 41.3544 105.752 41.2909 105.468 41.1637C105.184 41.0365 104.959 40.8457 104.795 40.5914C104.634 40.3482 104.551 40.0602 104.54 39.7385Z" fill="#2B2B2B"/>
<path d="M11.9233 48.7421V44.0327H15.331V44.5901H12.548V46.0339H15.1552V46.5875H12.548V48.1922H15.4395V48.7496H11.9233V48.7421Z" fill="#2B2B2B"/>
<path d="M18.7061 47.2272L19.2933 47.1749C19.3232 47.4105 19.3868 47.605 19.4878 47.7547C19.5888 47.9043 19.7459 48.0277 19.9629 48.1212C20.1761 48.2148 20.4192 48.2596 20.6848 48.2596C20.9242 48.2596 21.1337 48.226 21.3132 48.1549C21.4965 48.0838 21.6312 47.9866 21.7209 47.8631C21.8107 47.7397 21.8556 47.605 21.8556 47.4592C21.8556 47.3095 21.8145 47.1824 21.7284 47.0701C21.6424 46.9617 21.5003 46.8682 21.3057 46.7933C21.1786 46.7447 20.898 46.6662 20.4679 46.5652C20.034 46.4604 19.731 46.3632 19.5589 46.2697C19.3345 46.1537 19.1661 46.0041 19.0577 45.832C18.9492 45.66 18.8931 45.4617 18.8931 45.2448C18.8931 45.0091 18.9604 44.7847 19.0951 44.5789C19.2297 44.3732 19.428 44.2161 19.6861 44.1076C19.9442 43.9991 20.2322 43.9468 20.5502 43.9468C20.898 43.9468 21.2085 44.0029 21.4741 44.1151C21.7397 44.2273 21.9454 44.3919 22.0913 44.6126C22.2371 44.8333 22.312 45.0802 22.3232 45.3532L21.7247 45.3981C21.691 45.0989 21.5825 44.8744 21.3993 44.7248C21.2122 44.5715 20.9392 44.4966 20.5763 44.4966C20.1985 44.4966 19.9255 44.564 19.7534 44.7024C19.5813 44.8408 19.4953 45.0091 19.4953 45.2036C19.4953 45.3719 19.5552 45.5103 19.6786 45.6226C19.7983 45.731 20.1125 45.8432 20.6175 45.9592C21.1225 46.0752 21.4703 46.1762 21.6611 46.2584C21.9342 46.3856 22.1362 46.5465 22.2671 46.741C22.398 46.9355 22.4616 47.1562 22.4616 47.4105C22.4616 47.6612 22.3905 47.8968 22.2446 48.1175C22.1025 48.3382 21.893 48.5103 21.6274 48.6337C21.3581 48.7571 21.0551 48.817 20.7185 48.817C20.2921 48.817 19.9367 48.7534 19.6449 48.63C19.3569 48.5065 19.1325 48.3195 18.9679 48.0689C18.8033 47.8257 18.7173 47.5415 18.7061 47.2272Z" fill="#2B2B2B"/>
<path d="M23.1865 48.7421L24.997 44.0327H25.6703L27.5966 48.7421H26.8859L26.3361 47.3169H24.3648L23.8486 48.7421H23.1865ZM24.5443 46.8045H26.1416L25.6516 45.499C25.5019 45.1025 25.3897 44.7771 25.3186 44.5227C25.2588 44.8257 25.1728 45.125 25.0643 45.4205L24.5443 46.8045Z" fill="#2B2B2B"/>
<path d="M28.4829 48.7421V44.0327H29.1225L31.5988 47.7321V44.0327H32.1973V48.7421H31.5577L29.0814 45.0389V48.7421H28.4829Z" fill="#2B2B2B"/>
<path d="M33.6479 48.7421V44.0327H37.0556V44.5901H34.2726V46.0339H36.8798V46.5875H34.2726V48.1922H37.1641V48.7496H33.6479V48.7421Z" fill="#2B2B2B"/>
<path d="M37.9014 48.7421L39.7118 44.0327H40.3851L42.3115 48.7421H41.6008L41.0509 47.3169H39.0796L38.5634 48.7421H37.9014ZM39.2629 46.8045H40.8602L40.3701 45.499C40.2205 45.1025 40.1083 44.7771 40.0372 44.5227C39.9774 44.8257 39.8913 45.125 39.7829 45.4205L39.2629 46.8045Z" fill="#2B2B2B"/>
<path d="M43.187 48.7421V44.0327H44.1259L45.2406 47.3693C45.3416 47.6798 45.4164 47.9117 45.465 48.065C45.5174 47.893 45.6034 47.6424 45.7156 47.3094L46.8453 44.0327H47.6832V48.7421H47.0809V44.7995L45.7119 48.7421H45.1508L43.7892 44.7322V48.7421H43.187Z" fill="#2B2B2B"/>
<path d="M49.0933 48.7421V44.0327H52.5009V44.5901H49.7179V46.0339H52.3251V46.5875H49.7179V48.1922H52.6094V48.7496H49.0933V48.7421Z" fill="#2B2B2B"/>
<path d="M53.8589 48.7421V44.0327H54.4985L56.971 47.7321V44.0327H57.5695V48.7421H56.9299L54.4574 45.0389V48.7421H53.8589Z" fill="#2B2B2B"/>
<path d="M60.214 48.7422V44.5864H58.6616V44.0291H62.3947V44.5864H60.8349V48.7422H60.214Z" fill="#2B2B2B"/>
<path d="M63.1201 46.4455C63.1201 45.6637 63.3296 45.0502 63.7485 44.6089C64.1675 44.1675 64.7099 43.9468 65.3757 43.9468C65.8096 43.9468 66.2023 44.0515 66.5502 44.2572C66.8981 44.4667 67.1674 44.7547 67.3507 45.1251C67.534 45.4954 67.6238 45.9181 67.6238 46.3894C67.6238 46.8682 67.5265 47.2946 67.3357 47.6724C67.1412 48.0502 66.8682 48.3345 66.5165 48.529C66.1612 48.7235 65.7834 48.8207 65.3719 48.8207C64.9268 48.8207 64.5303 48.7123 64.1824 48.499C63.8346 48.2858 63.569 47.9903 63.3894 47.62C63.2099 47.2534 63.1201 46.8607 63.1201 46.4455ZM63.7635 46.4567C63.7635 47.0253 63.9169 47.4704 64.2198 47.7996C64.5266 48.125 64.9081 48.2896 65.3682 48.2896C65.8358 48.2896 66.2248 48.125 66.5278 47.7958C66.8308 47.4666 66.9841 46.9991 66.9841 46.3931C66.9841 46.0116 66.9205 45.6749 66.7896 45.3906C66.6587 45.1064 66.4717 44.8819 66.221 44.7248C65.9704 44.5677 65.6899 44.4892 65.3794 44.4892C64.938 44.4892 64.5565 44.6388 64.2385 44.9455C63.9243 45.241 63.7635 45.746 63.7635 46.4567Z" fill="#2B2B2B"/>
<path d="M71.0205 48.7421V44.0327H72.7898C73.1489 44.0327 73.4369 44.0813 73.6539 44.1749C73.8708 44.2721 74.0429 44.418 74.1663 44.6162C74.2898 44.8145 74.3496 45.0202 74.3496 45.2372C74.3496 45.4392 74.2935 45.6262 74.185 45.8057C74.0765 45.9815 73.912 46.1274 73.6913 46.2359C73.9756 46.3182 74.1962 46.4603 74.3496 46.6623C74.503 46.8643 74.5778 47.1 74.5778 47.3768C74.5778 47.5975 74.5329 47.8032 74.4394 47.994C74.3459 48.1847 74.2299 48.3306 74.0952 48.4316C73.9568 48.5326 73.7848 48.6112 73.5791 48.6635C73.3733 48.7159 73.119 48.7421 72.8197 48.7421H71.0205ZM71.6452 46.0077H72.6626C72.9394 46.0077 73.1377 45.989 73.2574 45.9516C73.4145 45.903 73.5342 45.8244 73.6165 45.716C73.695 45.6075 73.7362 45.4691 73.7362 45.3045C73.7362 45.1474 73.6987 45.009 73.6239 44.893C73.5491 44.7733 73.4407 44.6911 73.3023 44.6499C73.1638 44.605 72.9245 44.5826 72.5841 44.5826H71.6414V46.0077H71.6452ZM71.6452 48.1847H72.8197C73.0217 48.1847 73.1639 48.1773 73.2424 48.1623C73.3845 48.1361 73.5042 48.095 73.6015 48.0351C73.6988 47.9753 73.7773 47.8892 73.8371 47.7733C73.9007 47.6573 73.9307 47.5264 73.9307 47.3768C73.9307 47.201 73.8858 47.0476 73.796 46.9204C73.7062 46.7895 73.5828 46.6997 73.4219 46.6474C73.2611 46.595 73.0329 46.5688 72.7337 46.5688H71.6452V48.1847Z" fill="#2B2B2B"/>
<path d="M75.3145 48.7421L77.1249 44.0328H77.7982L79.7246 48.7421H79.0139L78.464 47.317H76.4927L75.9765 48.7421H75.3145ZM76.676 46.8045H78.2732L77.7832 45.4991C77.6336 45.1026 77.5214 44.7771 77.4503 44.5228C77.3905 44.8258 77.3044 45.125 77.196 45.4205L76.676 46.8045ZM77.065 43.741L77.4915 42.8433H78.2508L77.5438 43.741H77.065Z" fill="#2B2B2B"/>
<path d="M80.4053 47.2272L80.9925 47.1749C81.0187 47.4105 81.0861 47.605 81.187 47.7547C81.288 47.9043 81.4451 48.0277 81.6621 48.1212C81.8753 48.2148 82.1184 48.2596 82.384 48.2596C82.6197 48.2596 82.8329 48.226 83.0124 48.1549C83.1957 48.0838 83.3304 47.9866 83.4202 47.8631C83.5099 47.7397 83.5548 47.605 83.5548 47.4592C83.5548 47.3095 83.5137 47.1824 83.4276 47.0701C83.3416 46.9617 83.1995 46.8682 83.005 46.7933C82.8778 46.7447 82.5972 46.6662 82.1671 46.5652C81.7332 46.4604 81.4302 46.3632 81.2581 46.2697C81.0337 46.1537 80.8654 46.0041 80.7569 45.832C80.6447 45.6562 80.5923 45.4617 80.5923 45.2448C80.5923 45.0091 80.6596 44.7847 80.7943 44.5789C80.9289 44.3732 81.1272 44.2161 81.3853 44.1076C81.6434 43.9991 81.9314 43.9468 82.2494 43.9468C82.5972 43.9468 82.9077 44.0029 83.1733 44.1151C83.4389 44.2273 83.6446 44.3919 83.7905 44.6126C83.9326 44.8296 84.0112 45.0802 84.0224 45.3532L83.4239 45.3981C83.3902 45.0989 83.2818 44.8744 83.0985 44.7248C82.9115 44.5715 82.6384 44.4966 82.2756 44.4966C81.8978 44.4966 81.6247 44.564 81.4526 44.7024C81.2806 44.8408 81.1945 45.0091 81.1945 45.2036C81.1945 45.3719 81.2544 45.5103 81.3778 45.6226C81.4975 45.731 81.8117 45.8432 82.3167 45.9592C82.8254 46.0752 83.1695 46.1762 83.3603 46.2584C83.6334 46.3856 83.8354 46.5465 83.9663 46.741C84.0972 46.9355 84.1608 47.1562 84.1608 47.4105C84.1608 47.6612 84.0897 47.8968 83.9438 48.1175C83.8017 48.3382 83.5922 48.5103 83.3266 48.6337C83.0573 48.7571 82.7543 48.817 82.4177 48.817C81.9913 48.817 81.6322 48.7534 81.3441 48.63C81.0561 48.5065 80.8317 48.3195 80.6671 48.0689C80.4988 47.8257 80.4128 47.5415 80.4053 47.2272Z" fill="#2B2B2B"/>
<path d="M85.5073 48.7421V44.0327H86.132V48.7421H85.5073Z" fill="#2B2B2B"/>
<path d="M90.9881 47.0888L91.6128 47.246C91.4819 47.7584 91.2462 48.1474 90.9058 48.4167C90.5654 48.6861 90.1502 48.8207 89.6602 48.8207C89.1515 48.8207 88.74 48.716 88.4221 48.5103C88.1041 48.3045 87.861 48.0053 87.6964 47.6125C87.5318 47.2198 87.4458 46.8008 87.4458 46.3482C87.4458 45.8582 87.5393 45.428 87.7263 45.0652C87.9134 44.6986 88.1789 44.4218 88.5268 44.2311C88.8747 44.0403 89.2525 43.9468 89.6677 43.9468C90.139 43.9468 90.5355 44.0665 90.8572 44.3059C91.1789 44.5453 91.4033 44.8819 91.5305 45.3196L90.917 45.4654C90.8086 45.1213 90.6477 44.8744 90.442 44.7173C90.2325 44.5602 89.9744 44.4817 89.6565 44.4817C89.2936 44.4817 88.9907 44.5677 88.7475 44.7435C88.5044 44.9156 88.3323 45.1512 88.2351 45.443C88.1378 45.7348 88.0892 46.0378 88.0892 46.3482C88.0892 46.7485 88.149 47.1001 88.265 47.3956C88.3809 47.6948 88.5642 47.9193 88.8111 48.0651C89.058 48.2148 89.3236 48.2858 89.6116 48.2858C89.9595 48.2858 90.255 48.1848 90.4981 47.9828C90.7375 47.7846 90.9021 47.4853 90.9881 47.0888Z" fill="#2B2B2B"/>
<path d="M92.5845 46.4455C92.5845 45.6637 92.7939 45.0502 93.2129 44.6089C93.6318 44.1675 94.1742 43.9468 94.84 43.9468C95.2739 43.9468 95.6667 44.0515 96.0146 44.2572C96.3624 44.4667 96.6318 44.7547 96.8151 45.1251C96.9983 45.4954 97.0881 45.9181 97.0881 46.3894C97.0881 46.8682 96.9909 47.2946 96.8001 47.6724C96.6056 48.0502 96.3325 48.3345 95.9809 48.529C95.6293 48.7235 95.2478 48.8207 94.8363 48.8207C94.3912 48.8207 93.9947 48.7123 93.6468 48.499C93.2989 48.2858 93.0333 47.9903 92.8538 47.62C92.6743 47.2534 92.5845 46.8607 92.5845 46.4455ZM93.2241 46.4567C93.2241 47.0253 93.3775 47.4704 93.6805 47.7996C93.9872 48.125 94.3687 48.2896 94.8288 48.2896C95.2964 48.2896 95.6854 48.125 95.9884 47.7958C96.2914 47.4666 96.4447 46.9991 96.4447 46.3931C96.4447 46.0116 96.3811 45.6749 96.2502 45.3906C96.1193 45.1064 95.9323 44.8819 95.6817 44.7248C95.431 44.5677 95.1505 44.4892 94.84 44.4892C94.3986 44.4892 94.0209 44.6388 93.6992 44.9455C93.385 45.241 93.2241 45.746 93.2241 46.4567Z" fill="#2B2B2B"/>
</svg>
