<svg width="21" height="20" viewBox="0 0 21 20" fill="none" xmlns="http://www.w3.org/2000/svg">
<path d="M4.84103 19.4986V6.77318H0.611365V19.4986H4.84103ZM2.72674 5.03469C4.2017 5.03469 5.11979 4.05753 5.11979 2.8364C5.09231 1.58774 4.20176 0.637695 2.75473 0.637695C1.30793 0.637695 0.361816 1.58776 0.361816 2.8364C0.361816 4.05759 1.27968 5.03469 2.69913 5.03469H2.72674ZM7.18214 19.4986H11.4118V12.3921C11.4118 12.0118 11.4393 11.6318 11.551 11.36C11.8567 10.6001 12.5527 9.81304 13.7211 9.81304C15.2516 9.81304 15.864 10.98 15.864 12.6907V19.4985H20.0934V12.2019C20.0934 8.29312 18.0067 6.47442 15.2238 6.47442C12.9421 6.47442 11.9402 7.74983 11.3837 8.61851H11.4119V6.77291H7.18223C7.23774 7.96699 7.18214 19.4986 7.18214 19.4986Z" fill="#2B2B2B"/>
</svg>
