<svg width="34" height="33" viewBox="0 0 34 33" fill="none" xmlns="http://www.w3.org/2000/svg">
<path d="M7.78245 32.4205V10.5465H0.511963V32.4205H7.78245ZM4.14815 7.55812C6.6835 7.55812 8.26163 5.87845 8.26163 3.77942C8.21439 1.63305 6.68359 0 4.19626 0C1.70932 0 0.0830078 1.63308 0.0830078 3.77942C0.0830078 5.87855 1.66075 7.55812 4.10068 7.55812H4.14815ZM11.8066 32.4205H19.0771V20.205C19.0771 19.5512 19.1244 18.8981 19.3164 18.4308C19.842 17.1246 21.0383 15.7718 23.0467 15.7718C25.6776 15.7718 26.7301 17.7777 26.7301 20.7182V32.4204H34.0001V19.878C34.0001 13.1591 30.4132 10.0329 25.6297 10.0329C21.7075 10.0329 19.9855 12.2252 19.0288 13.7184H19.0773V10.546H11.8068C11.9022 12.5985 11.8066 32.4205 11.8066 32.4205Z" fill="white"/>
</svg>
