<svg width="18" height="18" viewBox="0 0 18 18" fill="none" xmlns="http://www.w3.org/2000/svg">
<path d="M9.06954 4.61596C6.65927 4.61596 4.73858 6.57431 4.73858 8.94692C4.73858 11.3572 6.65927 13.2779 9.06954 13.2779C11.4422 13.2779 13.4005 11.3572 13.4005 8.94692C13.4005 6.57431 11.4422 4.61596 9.06954 4.61596ZM9.06954 11.7715C7.52546 11.7715 6.245 10.5287 6.245 8.94692C6.245 7.40284 7.4878 6.16004 9.06954 6.16004C10.6136 6.16004 11.8564 7.40284 11.8564 8.94692C11.8564 10.5287 10.6136 11.7715 9.06954 11.7715ZM14.568 4.46531C14.568 3.90041 14.1161 3.44848 13.5512 3.44848C12.9862 3.44848 12.5343 3.90041 12.5343 4.46531C12.5343 5.03022 12.9862 5.48215 13.5512 5.48215C14.1161 5.48215 14.568 5.03022 14.568 4.46531ZM17.4302 5.48215C17.3549 4.12637 17.0536 2.92123 16.0744 1.94206C15.0952 0.962882 13.8901 0.661597 12.5343 0.586276C11.1409 0.510955 6.96055 0.510955 5.56711 0.586276C4.21133 0.661597 3.04385 0.962882 2.02702 1.94206C1.04784 2.92123 0.746558 4.12637 0.671237 5.48215C0.595916 6.87559 0.595916 11.0559 0.671237 12.4494C0.746558 13.8051 1.04784 14.9726 2.02702 15.9894C3.04385 16.9686 4.21133 17.2699 5.56711 17.3452C6.96055 17.4205 11.1409 17.4205 12.5343 17.3452C13.8901 17.2699 15.0952 16.9686 16.0744 15.9894C17.0536 14.9726 17.3549 13.8051 17.4302 12.4494C17.5055 11.0559 17.5055 6.87559 17.4302 5.48215ZM15.6225 13.9181C15.3589 14.6713 14.7563 15.2362 14.0407 15.5375C12.9109 15.9894 10.2747 15.8765 9.06954 15.8765C7.82675 15.8765 5.19051 15.9894 4.09835 15.5375C3.34514 15.2362 2.78023 14.6713 2.47895 13.9181C2.02702 12.826 2.13999 10.1897 2.13999 8.94692C2.13999 7.74178 2.02702 5.10554 2.47895 3.97573C2.78023 3.26018 3.34514 2.69527 4.09835 2.39398C5.19051 1.94206 7.82675 2.05504 9.06954 2.05504C10.2747 2.05504 12.9109 1.94206 14.0407 2.39398C14.7563 2.65761 15.3212 3.26018 15.6225 3.97573C16.0744 5.10554 15.9614 7.74178 15.9614 8.94692C15.9614 10.1897 16.0744 12.826 15.6225 13.9181Z" fill="#2B2B2B"/>
</svg>
