<svg width="30" height="30" viewBox="0 0 30 30" fill="none" xmlns="http://www.w3.org/2000/svg">
<path d="M14.5332 7.02383C10.3901 7.02383 7.08859 10.3901 7.08859 14.4684C7.08859 18.6115 10.3901 21.9131 14.5332 21.9131C18.6116 21.9131 21.9778 18.6115 21.9778 14.4684C21.9778 10.3901 18.6116 7.02383 14.5332 7.02383ZM14.5332 19.3236C11.879 19.3236 9.67801 17.1873 9.67801 14.4684C9.67801 11.8143 11.8143 9.67801 14.5332 9.67801C17.1874 9.67801 19.3236 11.8143 19.3236 14.4684C19.3236 17.1873 17.1874 19.3236 14.5332 19.3236ZM23.9846 6.76489C23.9846 5.79385 23.2078 5.01702 22.2368 5.01702C21.2657 5.01702 20.4889 5.79385 20.4889 6.76489C20.4889 7.73593 21.2657 8.51275 22.2368 8.51275C23.2078 8.51275 23.9846 7.73593 23.9846 6.76489ZM28.9045 8.51275C28.7751 6.18227 28.2572 4.11071 26.5741 2.42758C24.8909 0.744447 22.8194 0.226575 20.4889 0.0971037C18.0937 -0.0323679 10.908 -0.0323679 8.51275 0.0971037C6.18227 0.226575 4.17548 0.744447 2.42761 2.42758C0.744479 4.11071 0.226575 6.18227 0.0971037 8.51275C-0.0323679 10.908 -0.0323679 18.0937 0.0971037 20.4889C0.226575 22.8194 0.744479 24.8262 2.42761 26.574C4.17548 28.2572 6.18227 28.775 8.51275 28.9045C10.908 29.034 18.0937 29.034 20.4889 28.9045C22.8194 28.775 24.8909 28.2572 26.5741 26.574C28.2572 24.8262 28.7751 22.8194 28.9045 20.4889C29.034 18.0937 29.034 10.908 28.9045 8.51275ZM25.7972 23.0135C25.3441 24.3083 24.3083 25.2793 23.0783 25.7972C21.1362 26.574 16.6047 26.3798 14.5332 26.3798C12.3969 26.3798 7.8654 26.574 5.98806 25.7972C4.69335 25.2793 3.72232 24.3083 3.20443 23.0135C2.4276 21.1362 2.62182 16.6047 2.62182 14.4684C2.62182 12.3969 2.4276 7.86541 3.20443 5.92334C3.72232 4.69336 4.69335 3.72232 5.98806 3.20443C7.8654 2.4276 12.3969 2.62179 14.5332 2.62179C16.6047 2.62179 21.1362 2.4276 23.0783 3.20443C24.3083 3.65758 25.2794 4.69336 25.7972 5.92334C26.5741 7.86541 26.3798 12.3969 26.3798 14.4684C26.3798 16.6047 26.5741 21.1362 25.7972 23.0135Z" fill="white"/>
</svg>
