<svg width="258" height="37" viewBox="0 0 258 37" fill="none" xmlns="http://www.w3.org/2000/svg">
<path d="M16.6361 22.2777L17.5424 16.322H11.7809V12.4379C11.7809 10.7547 12.5578 9.20107 15.1472 9.20107H17.8014V4.08694C17.8014 4.08694 15.4061 3.63379 13.1404 3.63379C8.41467 3.63379 5.30736 6.5469 5.30736 11.7258V16.322H-0.000976562V22.2777H5.30736V36.7785H11.7809V22.2777H16.6361Z" fill="white"/>
<path d="M74.8983 13.4736C76.193 12.5026 77.3583 11.3373 78.2646 9.9779C77.0993 10.4958 75.7399 10.8842 74.3804 11.0137C75.8046 10.1721 76.8404 8.87739 77.3583 7.25899C76.0636 8.03582 74.5746 8.61844 73.0857 8.94212C71.791 7.58267 70.0431 6.80584 68.1011 6.80584C64.3464 6.80584 61.3038 9.84842 61.3038 13.6031C61.3038 14.121 61.3685 14.6389 61.498 15.1568C55.866 14.8331 50.8166 12.1142 47.4504 8.03582C46.8677 9.00686 46.5441 10.1721 46.5441 11.4668C46.5441 13.7973 47.7093 15.8689 49.5866 17.0988C48.4861 17.0341 47.3856 16.7752 46.4793 16.2573V16.322C46.4793 19.6235 48.8098 22.3424 51.9171 22.9898C51.3992 23.1193 50.7519 23.2487 50.1693 23.2487C49.7161 23.2487 49.3277 23.184 48.8745 23.1193C49.7161 25.8382 52.2408 27.7802 55.2186 27.845C52.8882 29.6576 49.975 30.7581 46.803 30.7581C46.2204 30.7581 45.7025 30.6933 45.1846 30.6286C48.1624 32.5707 51.7229 33.6712 55.6071 33.6712C68.1011 33.6712 74.8983 23.3782 74.8983 14.3799C74.8983 14.0563 74.8983 13.7973 74.8983 13.4736Z" fill="white"/>
<path d="M118.724 12.7615C114.581 12.7615 111.28 16.1278 111.28 20.2062C111.28 24.3492 114.581 27.6508 118.724 27.6508C122.803 27.6508 126.169 24.3492 126.169 20.2062C126.169 16.1278 122.803 12.7615 118.724 12.7615ZM118.724 25.0613C116.07 25.0613 113.869 22.9251 113.869 20.2062C113.869 17.552 116.006 15.4157 118.724 15.4157C121.379 15.4157 123.515 17.552 123.515 20.2062C123.515 22.9251 121.379 25.0613 118.724 25.0613ZM128.176 12.5026C128.176 11.5316 127.399 10.7547 126.428 10.7547C125.457 10.7547 124.68 11.5316 124.68 12.5026C124.68 13.4736 125.457 14.2505 126.428 14.2505C127.399 14.2505 128.176 13.4736 128.176 12.5026ZM133.096 14.2505C132.966 11.92 132.448 9.84842 130.765 8.16529C129.082 6.48216 127.011 5.96428 124.68 5.83481C122.285 5.70533 115.099 5.70533 112.704 5.83481C110.374 5.96428 108.367 6.48216 106.619 8.16529C104.936 9.84842 104.418 11.92 104.288 14.2505C104.159 16.6457 104.159 23.8314 104.288 26.2266C104.418 28.5571 104.936 30.5639 106.619 32.3117C108.367 33.9949 110.374 34.5128 112.704 34.6422C115.099 34.7717 122.285 34.7717 124.68 34.6422C127.011 34.5128 129.082 33.9949 130.765 32.3117C132.448 30.5639 132.966 28.5571 133.096 26.2266C133.225 23.8314 133.225 16.6457 133.096 14.2505ZM129.988 28.7513C129.535 30.046 128.5 31.017 127.27 31.5349C125.327 32.3117 120.796 32.1175 118.724 32.1175C116.588 32.1175 112.057 32.3117 110.179 31.5349C108.885 31.017 107.914 30.046 107.396 28.7513C106.619 26.8739 106.813 22.3424 106.813 20.2062C106.813 18.1346 106.619 13.6031 107.396 11.661C107.914 10.431 108.885 9.46001 110.179 8.94212C112.057 8.16529 116.588 8.3595 118.724 8.3595C120.796 8.3595 125.327 8.16529 127.27 8.94212C128.5 9.39527 129.471 10.431 129.988 11.661C130.765 13.6031 130.571 18.1346 130.571 20.2062C130.571 22.3424 130.765 26.8739 129.988 28.7513Z" fill="white"/>
<path d="M194.66 11.7258C194.271 10.1721 193.041 8.94212 191.552 8.55371C188.769 7.77688 177.763 7.77688 177.763 7.77688C177.763 7.77688 166.694 7.77688 163.91 8.55371C162.421 8.94212 161.191 10.1721 160.803 11.7258C160.026 14.4447 160.026 20.2709 160.026 20.2709C160.026 20.2709 160.026 26.0324 160.803 28.816C161.191 30.3697 162.421 31.5349 163.91 31.9233C166.694 32.6354 177.763 32.6354 177.763 32.6354C177.763 32.6354 188.769 32.6354 191.552 31.9233C193.041 31.5349 194.271 30.3697 194.66 28.816C195.436 26.0324 195.436 20.2709 195.436 20.2709C195.436 20.2709 195.436 14.4447 194.66 11.7258ZM174.138 25.5145V15.0273L183.331 20.2709L174.138 25.5145Z" fill="white"/>
<path d="M231.78 33.1866V11.3126H224.51V33.1866H231.78ZM228.146 8.32424C230.682 8.32424 232.26 6.64456 232.26 4.54553C232.212 2.39917 230.682 0.766113 228.194 0.766113C225.707 0.766113 224.081 2.3992 224.081 4.54553C224.081 6.64466 225.659 8.32424 228.099 8.32424H228.146H228.146ZM235.805 33.1866H243.075V20.9711C243.075 20.3173 243.122 19.6642 243.314 19.1969C243.84 17.8907 245.036 16.5379 247.045 16.5379C249.676 16.5379 250.728 18.5438 250.728 21.4843V33.1865H257.998V20.6441C257.998 13.9252 254.411 10.799 249.628 10.799C245.706 10.799 243.984 12.9914 243.027 14.4846H243.075V11.3121H235.805C235.9 13.3647 235.805 33.1862 235.805 33.1862L235.805 33.1866Z" fill="white"/>
</svg>
