<svg width="34" height="27" viewBox="0 0 34 27" fill="none" xmlns="http://www.w3.org/2000/svg">
<path d="M29.7137 6.66779C31.0084 5.69675 32.1737 4.53151 33.08 3.17206C31.9147 3.68994 30.5553 4.07835 29.1958 4.20782C30.62 3.36626 31.6558 2.07155 32.1737 0.453156C30.879 1.22998 29.39 1.81261 27.9011 2.13629C26.6064 0.77684 24.8585 0 22.9165 0C19.1618 0 16.1192 3.0426 16.1192 6.79727C16.1192 7.31516 16.1839 7.83304 16.3134 8.35092C10.6814 8.02724 5.63201 5.30834 2.26575 1.22998C1.68313 2.20102 1.35947 3.36626 1.35947 4.66098C1.35947 6.99147 2.5247 9.06302 4.40204 10.293C3.30153 10.2283 2.20101 9.9693 1.29471 9.45142V9.51614C1.29471 12.8177 3.6252 15.5366 6.73251 16.1839C6.21463 16.3134 5.56727 16.4429 4.98465 16.4429C4.5315 16.4429 4.14309 16.3782 3.68994 16.3134C4.53151 19.0323 7.05621 20.9744 10.0341 21.0391C7.70357 22.8517 4.79046 23.9522 1.61841 23.9522C1.03579 23.9522 0.517886 23.8875 0 23.8228C2.97785 25.7648 6.53831 26.8653 10.4225 26.8653C22.9165 26.8653 29.7137 16.5724 29.7137 7.5741C29.7137 7.25042 29.7137 6.99146 29.7137 6.66779Z" fill="white"/>
</svg>
