<svg width="20" height="16" viewBox="0 0 20 16" fill="none" xmlns="http://www.w3.org/2000/svg">
<path d="M17.5733 4.03016C18.3265 3.46525 19.0044 2.78736 19.5317 1.99649C18.8538 2.29778 18.0629 2.52374 17.272 2.59906C18.1006 2.10947 18.7031 1.35626 19.0044 0.414747C18.2512 0.866674 17.385 1.20562 16.5188 1.39392C15.7656 0.60305 14.7488 0.151123 13.6189 0.151123C11.4346 0.151123 9.66459 1.92117 9.66459 4.10548C9.66459 4.40677 9.70225 4.70805 9.77757 5.00934C6.5011 4.82103 3.56358 3.23929 1.60523 0.866674C1.26628 1.43158 1.07798 2.10947 1.07798 2.86268C1.07798 4.21846 1.75587 5.4236 2.84803 6.13915C2.2078 6.10149 1.56757 5.95085 1.04032 5.64957V5.68723C1.04032 7.60791 2.3961 9.18966 4.20381 9.56627C3.90252 9.64159 3.52592 9.71691 3.18697 9.71691C2.92335 9.71691 2.69739 9.67925 2.43376 9.64159C2.92335 11.2233 4.39211 12.3531 6.12449 12.3908C4.76871 13.4453 3.07399 14.0855 1.22862 14.0855C0.889677 14.0855 0.588394 14.0479 0.287109 14.0102C2.0195 15.14 4.09082 15.7803 6.35046 15.7803C13.6189 15.7803 17.5733 9.79223 17.5733 4.55741C17.5733 4.36911 17.5733 4.21846 17.5733 4.03016Z" fill="#2B2B2B"/>
</svg>
