<svg width="118" height="119" viewBox="0 0 118 119" fill="none" xmlns="http://www.w3.org/2000/svg">
<path fill-rule="evenodd" clip-rule="evenodd" d="M14.75 0.302734C10.8381 0.302734 7.08634 1.85675 4.32018 4.62291C1.55401 7.38907 0 11.1408 0 15.0527L0 103.553C0 107.465 1.55401 111.216 4.32018 113.983C7.08634 116.749 10.8381 118.303 14.75 118.303H103.25C107.162 118.303 110.914 116.749 113.68 113.983C116.446 111.216 118 107.465 118 103.553V15.0527C118 11.1408 116.446 7.38907 113.68 4.62291C110.914 1.85675 107.162 0.302734 103.25 0.302734L14.75 0.302734ZM56.3892 78.817C55.6968 79.5094 55.3078 80.4485 55.3078 81.4277C55.3078 82.407 55.6968 83.3461 56.3892 84.0385C57.0817 84.7309 58.0208 85.1199 59 85.1199C59.9792 85.1199 60.9183 84.7309 61.6108 84.0385L83.7357 61.9135C84.0792 61.5709 84.3516 61.164 84.5375 60.716C84.7234 60.268 84.8191 59.7878 84.8191 59.3027C84.8191 58.8177 84.7234 58.3374 84.5375 57.8894C84.3516 57.4414 84.0792 57.0345 83.7357 56.692L61.6108 34.567C61.2679 34.2241 60.8609 33.9522 60.4129 33.7666C59.965 33.5811 59.4849 33.4856 59 33.4856C58.5151 33.4856 58.035 33.5811 57.5871 33.7666C57.1391 33.9522 56.7321 34.2241 56.3892 34.567C56.0464 34.9098 55.7744 35.3169 55.5889 35.7648C55.4033 36.2128 55.3078 36.6929 55.3078 37.1777C55.3078 37.6626 55.4033 38.1427 55.5889 38.5907C55.7744 39.0386 56.0464 39.4456 56.3892 39.7885L72.2234 55.6152H36.875C35.897 55.6152 34.9591 56.0037 34.2675 56.6953C33.576 57.3868 33.1875 58.3247 33.1875 59.3027C33.1875 60.2807 33.576 61.2187 34.2675 61.9102C34.9591 62.6017 35.897 62.9902 36.875 62.9902H72.2234L56.3892 78.817Z" fill="#2B2B2B"/>
</svg>
