<svg width="50" height="51" viewBox="0 0 50 51" fill="none" xmlns="http://www.w3.org/2000/svg">
<path fill-rule="evenodd" clip-rule="evenodd" d="M6.25 0.10199C4.5924 0.10199 3.00269 0.76047 1.83058 1.93257C0.65848 3.10467 0 4.69439 0 6.35199L0 43.852C0 45.5096 0.65848 47.0993 1.83058 48.2714C3.00269 49.4435 4.5924 50.102 6.25 50.102H43.75C45.4076 50.102 46.9973 49.4435 48.1694 48.2714C49.3415 47.0993 50 45.5096 50 43.852V6.35199C50 4.69439 49.3415 3.10467 48.1694 1.93257C46.9973 0.76047 45.4076 0.10199 43.75 0.10199L6.25 0.10199ZM23.8937 33.3707C23.6004 33.6641 23.4355 34.0621 23.4355 34.477C23.4355 34.8919 23.6004 35.2898 23.8937 35.5832C24.1871 35.8766 24.5851 36.0415 25 36.0415C25.4149 36.0415 25.8129 35.8766 26.1063 35.5832L35.4813 26.2082C35.6268 26.0631 35.7422 25.8907 35.821 25.7008C35.8997 25.511 35.9403 25.3075 35.9403 25.102C35.9403 24.8965 35.8997 24.693 35.821 24.5031C35.7422 24.3133 35.6268 24.1409 35.4813 23.9957L26.1063 14.6207C25.961 14.4755 25.7885 14.3602 25.5987 14.2816C25.4089 14.203 25.2055 14.1625 25 14.1625C24.7945 14.1625 24.5911 14.203 24.4013 14.2816C24.2115 14.3602 24.039 14.4755 23.8937 14.6207C23.7485 14.766 23.6332 14.9385 23.5546 15.1283C23.476 15.3181 23.4355 15.5215 23.4355 15.727C23.4355 15.9324 23.476 16.1359 23.5546 16.3257C23.6332 16.5155 23.7485 16.688 23.8937 16.8332L30.6031 23.5395H15.625C15.2106 23.5395 14.8132 23.7041 14.5201 23.9971C14.2271 24.2902 14.0625 24.6876 14.0625 25.102C14.0625 25.5164 14.2271 25.9138 14.5201 26.2068C14.8132 26.4999 15.2106 26.6645 15.625 26.6645H30.6031L23.8937 33.3707Z" fill="#23BAD4"/>
</svg>
