<svg width="50" height="51" viewBox="0 0 50 51" fill="none" xmlns="http://www.w3.org/2000/svg">
<path fill-rule="evenodd" clip-rule="evenodd" d="M6.25 0.592896C4.5924 0.592896 3.00269 1.25138 1.83058 2.42348C0.65848 3.59558 0 5.18529 0 6.8429L0 44.3429C0 46.0005 0.65848 47.5902 1.83058 48.7623C3.00269 49.9344 4.5924 50.5929 6.25 50.5929H43.75C45.4076 50.5929 46.9973 49.9344 48.1694 48.7623C49.3415 47.5902 50 46.0005 50 44.3429V6.8429C50 5.18529 49.3415 3.59558 48.1694 2.42348C46.9973 1.25138 45.4076 0.592896 43.75 0.592896L6.25 0.592896ZM23.8937 33.8616C23.6004 34.155 23.4355 34.553 23.4355 34.9679C23.4355 35.3828 23.6004 35.7808 23.8937 36.0741C24.1871 36.3675 24.5851 36.5324 25 36.5324C25.4149 36.5324 25.8129 36.3675 26.1063 36.0741L35.4813 26.6991C35.6268 26.554 35.7422 26.3816 35.821 26.1917C35.8997 26.0019 35.9403 25.7984 35.9403 25.5929C35.9403 25.3874 35.8997 25.1839 35.821 24.994C35.7422 24.8042 35.6268 24.6318 35.4813 24.4866L26.1063 15.1116C25.961 14.9664 25.7885 14.8511 25.5987 14.7725C25.4089 14.6939 25.2055 14.6534 25 14.6534C24.7945 14.6534 24.5911 14.6939 24.4013 14.7725C24.2115 14.8511 24.039 14.9664 23.8937 15.1116C23.7485 15.2569 23.6332 15.4294 23.5546 15.6192C23.476 15.809 23.4355 16.0124 23.4355 16.2179C23.4355 16.4233 23.476 16.6268 23.5546 16.8166C23.6332 17.0064 23.7485 17.1789 23.8937 17.3241L30.6031 24.0304H15.625C15.2106 24.0304 14.8132 24.195 14.5201 24.488C14.2271 24.7811 14.0625 25.1785 14.0625 25.5929C14.0625 26.0073 14.2271 26.4047 14.5201 26.6978C14.8132 26.9908 15.2106 27.1554 15.625 27.1554H30.6031L23.8937 33.8616Z" fill="#23BAD4"/>
</svg>
