<svg width="118" height="119" viewBox="0 0 118 119" fill="none" xmlns="http://www.w3.org/2000/svg">
<path fill-rule="evenodd" clip-rule="evenodd" d="M14.75 0.972656C10.8381 0.972656 7.08634 2.52667 4.32018 5.29283C1.55401 8.05899 0 11.8107 0 15.7227L0 104.223C0 108.135 1.55401 111.886 4.32018 114.652C7.08634 117.419 10.8381 118.973 14.75 118.973H103.25C107.162 118.973 110.914 117.419 113.68 114.652C116.446 111.886 118 108.135 118 104.223V15.7227C118 11.8107 116.446 8.05899 113.68 5.29283C110.914 2.52667 107.162 0.972656 103.25 0.972656L14.75 0.972656ZM56.3892 79.4869C55.6968 80.1793 55.3078 81.1184 55.3078 82.0977C55.3078 83.0769 55.6968 84.016 56.3892 84.7084C57.0817 85.4008 58.0208 85.7898 59 85.7898C59.9792 85.7898 60.9183 85.4008 61.6108 84.7084L83.7357 62.5834C84.0792 62.2409 84.3516 61.8339 84.5375 61.386C84.7234 60.938 84.8191 60.4577 84.8191 59.9727C84.8191 59.4876 84.7234 59.0074 84.5375 58.5594C84.3516 58.1114 84.0792 57.7044 83.7357 57.3619L61.6108 35.2369C61.2679 34.8941 60.8609 34.6221 60.4129 34.4365C59.965 34.251 59.4849 34.1555 59 34.1555C58.5151 34.1555 58.035 34.251 57.5871 34.4365C57.1391 34.6221 56.7321 34.8941 56.3892 35.2369C56.0464 35.5798 55.7744 35.9868 55.5889 36.4347C55.4033 36.8827 55.3078 37.3628 55.3078 37.8477C55.3078 38.3325 55.4033 38.8126 55.5889 39.2606C55.7744 39.7085 56.0464 40.1156 56.3892 40.4584L72.2234 56.2852H36.875C35.897 56.2852 34.9591 56.6737 34.2675 57.3652C33.576 58.0567 33.1875 58.9947 33.1875 59.9727C33.1875 60.9506 33.576 61.8886 34.2675 62.5801C34.9591 63.2717 35.897 63.6602 36.875 63.6602H72.2234L56.3892 79.4869Z" fill="white"/>
</svg>
