<svg width="79" height="79" viewBox="0 0 79 79" fill="none" xmlns="http://www.w3.org/2000/svg">
<path fill-rule="evenodd" clip-rule="evenodd" d="M10.25 0.935303C7.66414 0.935303 5.18419 1.96253 3.35571 3.79101C1.52723 5.61949 0.5 8.09944 0.5 10.6853L0.5 69.1853C0.5 71.7712 1.52723 74.2511 3.35571 76.0796C5.18419 77.9081 7.66414 78.9353 10.25 78.9353H68.75C71.3359 78.9353 73.8158 77.9081 75.6443 76.0796C77.4728 74.2511 78.5 71.7712 78.5 69.1853V10.6853C78.5 8.09944 77.4728 5.61949 75.6443 3.79101C73.8158 1.96253 71.3359 0.935303 68.75 0.935303L10.25 0.935303ZM37.7743 52.8346C37.3166 53.2922 37.0594 53.913 37.0594 54.5603C37.0594 55.2076 37.3166 55.8284 37.7743 56.2861C38.2319 56.7438 38.8527 57.0009 39.5 57.0009C40.1473 57.0009 40.7681 56.7438 41.2257 56.2861L55.8507 41.6611C56.0777 41.4346 56.2578 41.1656 56.3807 40.8695C56.5036 40.5734 56.5669 40.2559 56.5669 39.9353C56.5669 39.6147 56.5036 39.2972 56.3807 39.0011C56.2578 38.705 56.0777 38.436 55.8507 38.2096L41.2257 23.5846C40.9991 23.3579 40.7301 23.1782 40.434 23.0555C40.1379 22.9328 39.8205 22.8697 39.5 22.8697C39.1795 22.8697 38.8621 22.9328 38.566 23.0555C38.2699 23.1782 38.0009 23.3579 37.7743 23.5846C37.5476 23.8112 37.3678 24.0802 37.2452 24.3763C37.1225 24.6724 37.0594 24.9898 37.0594 25.3103C37.0594 25.6308 37.1225 25.9482 37.2452 26.2443C37.3678 26.5404 37.5476 26.8094 37.7743 27.0361L48.2409 37.4978H24.875C24.2285 37.4978 23.6085 37.7546 23.1514 38.2117C22.6943 38.6688 22.4375 39.2888 22.4375 39.9353C22.4375 40.5818 22.6943 41.2018 23.1514 41.6589C23.6085 42.116 24.2285 42.3728 24.875 42.3728H48.2409L37.7743 52.8346Z" fill="#2B2B2B"/>
</svg>
