<svg width="36" height="25" viewBox="0 0 36 25" fill="none" xmlns="http://www.w3.org/2000/svg">
<path d="M34.6613 3.95963C34.2729 2.40597 33.0429 1.17598 31.554 0.787567C28.7704 0.0107377 17.765 0.0107422 17.765 0.0107422C17.765 0.0107422 6.69514 0.0107377 3.9115 0.787567C2.42258 1.17598 1.19258 2.40597 0.804169 3.95963C0.0273393 6.67853 0.0273438 12.5047 0.0273438 12.5047C0.0273438 12.5047 0.0273393 18.2662 0.804169 21.0499C1.19258 22.6035 2.42258 23.7687 3.9115 24.1572C6.69514 24.8693 17.765 24.8693 17.765 24.8693C17.765 24.8693 28.7704 24.8693 31.554 24.1572C33.0429 23.7687 34.2729 22.6035 34.6613 21.0499C35.4381 18.2662 35.4382 12.5047 35.4382 12.5047C35.4382 12.5047 35.4381 6.67853 34.6613 3.95963ZM14.1397 17.7484V7.26114L23.3322 12.5047L14.1397 17.7484Z" fill="white"/>
</svg>
