<svg width="21" height="16" viewBox="0 0 21 16" fill="none" xmlns="http://www.w3.org/2000/svg">
<path d="M20.2451 3.01311C20.0191 2.10926 19.3036 1.39371 18.4374 1.16775C16.818 0.71582 10.4157 0.71582 10.4157 0.71582C10.4157 0.71582 3.97572 0.71582 2.35632 1.16775C1.49012 1.39371 0.77457 2.10926 0.548607 3.01311C0.0966801 4.59486 0.0966797 7.98431 0.0966797 7.98431C0.0966797 7.98431 0.0966801 11.3361 0.548607 12.9555C0.77457 13.8594 1.49012 14.5372 2.35632 14.7632C3.97572 15.1775 10.4157 15.1775 10.4157 15.1775C10.4157 15.1775 16.818 15.1775 18.4374 14.7632C19.3036 14.5372 20.0191 13.8594 20.2451 12.9555C20.697 11.3361 20.697 7.98431 20.697 7.98431C20.697 7.98431 20.697 4.59486 20.2451 3.01311ZM8.30669 11.0348V4.9338L13.6545 7.98431L8.30669 11.0348Z" fill="#2B2B2B"/>
</svg>
